<svg width="78" height="78" viewBox="0 0 78 78" fill="none" xmlns="http://www.w3.org/2000/svg">
<path d="M39 45.5C31.135 45.5 23.725 43.55 19.5 40.4625V31.33C24.2775 34.0275 31.2325 35.75 39 35.75C46.7675 35.75 53.7225 34.0275 58.5 31.33V39.26C59.5725 39.0975 60.645 39 61.75 39C62.855 39 63.9275 39.0975 65 39.26V22.75C65 15.5675 53.365 9.75 39 9.75C24.635 9.75 13 15.5675 13 22.75V55.25C13 62.4325 24.6675 68.25 39 68.25H39.9425C39.3318 66.1368 39.0146 63.9496 39 61.75C26.4225 61.75 19.5 56.875 19.5 55.25V48.0025C24.7325 50.5375 31.59 52 39 52C39.78 52 40.5275 52 41.275 51.9025C42.575 49.205 44.3625 46.8325 46.54 44.8825C44.135 45.2725 41.6 45.5 39 45.5ZM39 16.25C51.5775 16.25 58.5 21.125 58.5 22.75C58.5 24.375 51.5775 29.25 39 29.25C26.4225 29.25 19.5 24.375 19.5 22.75C19.5 21.125 26.4225 16.25 39 16.25ZM73.775 63.7V60.45L77.35 57.85C77.675 57.525 78 57.2 77.675 56.875L74.425 51.35C74.425 51.025 73.775 51.025 73.45 51.025L69.55 52.65C68.575 52 67.6 51.35 66.625 51.025L65.975 46.8C65.975 46.475 65.65 46.15 65.325 46.15H58.825C58.175 46.15 57.85 46.475 57.85 46.8L57.2 51.025C56.225 51.675 55.575 52 54.6 52.65L50.7 51.025C50.375 51.025 50.05 51.025 49.725 51.35L46.475 56.875C46.475 57.2 46.475 57.525 46.8 57.85L50.375 60.45V63.7L46.8 66.3C46.475 66.625 46.15 66.95 46.475 67.275L49.725 72.8C50.05 73.125 50.375 73.125 50.7 73.125L54.6 71.5C55.25 72.15 56.225 72.8 57.2 73.125L57.85 77.35C58.175 77.675 58.5 78 58.825 78H65.325C65.65 78 65.975 77.675 65.975 77.35L66.625 73.125C67.6 72.475 68.25 72.15 69.225 71.5L73.125 72.8C73.45 72.8 73.775 72.8 74.1 72.475L77.35 66.95C77.675 66.625 77.675 66.3 77.35 66.3L73.775 63.7ZM61.75 66.625C59.15 66.625 56.875 64.35 56.875 61.75C56.875 59.15 59.15 56.875 61.75 56.875C64.35 56.875 66.625 59.15 66.625 61.75C66.625 64.35 64.35 66.625 61.75 66.625Z" fill="#315BEF"/>
</svg>
