<svg width="58" height="58" viewBox="0 0 58 58" fill="none" xmlns="http://www.w3.org/2000/svg">
<path d="M28.9773 4.32166C14.9701 4.31599 3.625 15.6554 3.625 29.6514C3.625 40.7189 10.7221 50.1269 20.6059 53.582C21.9369 53.9162 21.733 52.9703 21.733 52.3246V47.9349C14.0469 48.8355 13.7354 43.7492 13.2199 42.8996C12.1777 41.1211 9.71387 40.668 10.4502 39.8183C12.2004 38.9178 13.9846 40.0449 16.052 43.0978C17.5473 45.3125 20.4643 44.9387 21.9426 44.5705C22.2654 43.2394 22.9564 42.05 23.908 41.1267C15.9443 39.6994 12.6252 34.8396 12.6252 29.0623C12.6252 26.2586 13.5484 23.6814 15.3609 21.6027C14.2055 18.176 15.4686 15.242 15.6385 14.8058C18.9293 14.5113 22.3504 17.1621 22.6166 17.3717C24.4857 16.8676 26.6211 16.6013 29.0113 16.6013C31.4129 16.6013 33.5539 16.8789 35.44 17.3887C36.0801 16.9015 39.2519 14.6246 42.3105 14.9021C42.4748 15.3383 43.7096 18.2043 42.6221 21.5857C44.4572 23.6701 45.3918 26.2699 45.3918 29.0793C45.3918 34.868 42.05 39.7334 34.0637 41.1381C34.7477 41.8108 35.2909 42.6131 35.6614 43.498C36.0319 44.383 36.2224 45.333 36.2217 46.2924V52.6644C36.267 53.1742 36.2217 53.6783 37.0713 53.6783C47.1023 50.2969 54.324 40.8209 54.324 29.657C54.324 15.6554 42.9732 4.32166 28.9773 4.32166Z" fill="black"/>
</svg>
