<svg width="58" height="58" viewBox="0 0 58 58" fill="none" xmlns="http://www.w3.org/2000/svg">
<path d="M29 21.4498C24.8426 21.4498 21.4498 24.8426 21.4498 29C21.4498 33.1574 24.8426 36.5502 29 36.5502C33.1574 36.5502 36.5502 33.1574 36.5502 29C36.5502 24.8426 33.1574 21.4498 29 21.4498ZM51.645 29C51.645 25.8734 51.6733 22.7752 51.4977 19.6543C51.3221 16.0293 50.4951 12.8121 47.8444 10.1613C45.1879 7.50489 41.9764 6.68361 38.3514 6.50802C35.2248 6.33243 32.1266 6.36075 29.0057 6.36075C25.8791 6.36075 22.7809 6.33243 19.66 6.50802C16.035 6.68361 12.8178 7.51056 10.167 10.1613C7.51057 12.8178 6.68928 16.0293 6.5137 19.6543C6.33811 22.7809 6.36643 25.8791 6.36643 29C6.36643 32.1209 6.33811 35.2248 6.5137 38.3457C6.68928 41.9707 7.51624 45.1879 10.167 47.8387C12.8235 50.4951 16.035 51.3164 19.66 51.492C22.7865 51.6676 25.8848 51.6393 29.0057 51.6393C32.1322 51.6393 35.2305 51.6676 38.3514 51.492C41.9764 51.3164 45.1936 50.4895 47.8444 47.8387C50.5008 45.1822 51.3221 41.9707 51.4977 38.3457C51.6789 35.2248 51.645 32.1266 51.645 29ZM29 40.617C22.5713 40.617 17.383 35.4287 17.383 29C17.383 22.5713 22.5713 17.383 29 17.383C35.4287 17.383 40.617 22.5713 40.617 29C40.617 35.4287 35.4287 40.617 29 40.617ZM41.0928 19.6203C39.5918 19.6203 38.3797 18.4082 38.3797 16.9072C38.3797 15.4063 39.5918 14.1942 41.0928 14.1942C42.5938 14.1942 43.8059 15.4063 43.8059 16.9072C43.8063 17.2636 43.7365 17.6166 43.6003 17.946C43.4641 18.2754 43.2643 18.5747 43.0122 18.8267C42.7602 19.0787 42.461 19.2785 42.1316 19.4147C41.8022 19.5509 41.4492 19.6208 41.0928 19.6203Z" fill="black"/>
</svg>
