<svg aria-hidden="true" style="position: absolute; width: 0; height: 0; overflow: hidden;" version="1.1" xmlns="http://www.w3.org/2000/svg" xmlns:xlink="http://www.w3.org/1999/xlink">
<defs>
<symbol id="icon-insta" viewBox="0 0 20 20">
<path d="M10 7.396c-1.434 0-2.604 1.17-2.604 2.604s1.17 2.604 2.604 2.604c1.434 0 2.604-1.17 2.604-2.604s-1.17-2.604-2.604-2.604zM17.809 10c0-1.078 0.010-2.146-0.051-3.223-0.061-1.25-0.346-2.359-1.26-3.273-0.916-0.916-2.023-1.199-3.273-1.26-1.078-0.061-2.146-0.051-3.223-0.051-1.078 0-2.146-0.010-3.223 0.051-1.25 0.061-2.359 0.346-3.273 1.26-0.916 0.916-1.199 2.023-1.26 3.273-0.061 1.078-0.051 2.146-0.051 3.223s-0.010 2.146 0.051 3.223c0.061 1.25 0.346 2.359 1.26 3.273 0.916 0.916 2.023 1.199 3.273 1.26 1.078 0.061 2.146 0.051 3.223 0.051 1.078 0 2.146 0.010 3.223-0.051 1.25-0.061 2.359-0.346 3.273-1.26 0.916-0.916 1.199-2.023 1.26-3.273 0.062-1.076 0.051-2.145 0.051-3.223zM10 14.006c-2.217 0-4.006-1.789-4.006-4.006s1.789-4.006 4.006-4.006c2.217 0 4.006 1.789 4.006 4.006s-1.789 4.006-4.006 4.006zM14.17 6.766c-0.518 0-0.936-0.418-0.936-0.936s0.418-0.936 0.936-0.936 0.936 0.418 0.936 0.936c0 0.123-0.024 0.245-0.071 0.358s-0.116 0.217-0.203 0.304c-0.087 0.087-0.19 0.156-0.304 0.203s-0.235 0.071-0.358 0.071z"></path>
</symbol>
<symbol id="icon-db" viewBox="0 0 20 20">
<path fill="#315bef" style="fill: var(--color1, #315bef)" d="M10 11.667c-2.017 0-3.917-0.5-5-1.292v-2.342c1.225 0.692 3.008 1.133 5 1.133s3.775-0.442 5-1.133v2.033c0.275-0.042 0.55-0.067 0.833-0.067s0.558 0.025 0.833 0.067v-4.233c0-1.842-2.983-3.333-6.667-3.333s-6.667 1.492-6.667 3.333v8.333c0 1.842 2.992 3.333 6.667 3.333h0.242c-0.157-0.542-0.238-1.103-0.242-1.667-3.225 0-5-1.25-5-1.667v-1.858c1.342 0.65 3.1 1.025 5 1.025 0.2 0 0.392 0 0.583-0.025 0.333-0.692 0.792-1.3 1.35-1.8-0.617 0.1-1.267 0.158-1.933 0.158zM10 4.167c3.225 0 5 1.25 5 1.667s-1.775 1.667-5 1.667c-3.225 0-5-1.25-5-1.667s1.775-1.667 5-1.667zM18.917 16.333v-0.833l0.917-0.667c0.083-0.083 0.167-0.167 0.083-0.25l-0.833-1.417c0-0.083-0.167-0.083-0.25-0.083l-1 0.417c-0.25-0.167-0.5-0.333-0.75-0.417l-0.167-1.083c0-0.083-0.083-0.167-0.167-0.167h-1.667c-0.167 0-0.25 0.083-0.25 0.167l-0.167 1.083c-0.25 0.167-0.417 0.25-0.667 0.417l-1-0.417c-0.083 0-0.167 0-0.25 0.083l-0.833 1.417c0 0.083 0 0.167 0.083 0.25l0.917 0.667v0.833l-0.917 0.667c-0.083 0.083-0.167 0.167-0.083 0.25l0.833 1.417c0.083 0.083 0.167 0.083 0.25 0.083l1-0.417c0.167 0.167 0.417 0.333 0.667 0.417l0.167 1.083c0.083 0.083 0.167 0.167 0.25 0.167h1.667c0.083 0 0.167-0.083 0.167-0.167l0.167-1.083c0.25-0.167 0.417-0.25 0.667-0.417l1 0.333c0.083 0 0.167 0 0.25-0.083l0.833-1.417c0.083-0.083 0.083-0.167 0-0.167l-0.917-0.667zM15.833 17.083c-0.667 0-1.25-0.583-1.25-1.25s0.583-1.25 1.25-1.25c0.667 0 1.25 0.583 1.25 1.25s-0.583 1.25-1.25 1.25z"></path>
</symbol>
<symbol id="icon-dev" viewBox="0 0 146 20">
<path fill="#315bef" style="fill: var(--color1, #315bef)" d="M4.621 16.405l-4.459-5.063 4.459-5.086h5.714l-4.459 5.086 4.459 5.063h-5.714zM12.017 12.828c0-1.347 0.24-2.524 0.72-3.53 0.495-1.006 1.169-1.781 2.021-2.323s1.796-0.813 2.834-0.813c0.836 0 1.579 0.178 2.23 0.534 0.666 0.341 1.185 0.813 1.556 1.417v-5.946h4.575v17.187h-4.575v-1.812c-0.356 0.604-0.859 1.084-1.51 1.44s-1.417 0.534-2.299 0.534c-1.037 0-1.982-0.271-2.834-0.813-0.836-0.542-1.502-1.316-1.997-2.323-0.48-1.022-0.72-2.206-0.72-3.554zM21.4 12.828c0-0.836-0.232-1.494-0.697-1.974-0.449-0.48-1.006-0.72-1.672-0.72-0.681 0-1.246 0.24-1.695 0.72-0.449 0.465-0.674 1.123-0.674 1.974 0 0.836 0.225 1.502 0.674 1.997 0.449 0.48 1.014 0.72 1.695 0.72 0.666 0 1.223-0.24 1.672-0.72 0.465-0.48 0.697-1.146 0.697-1.997zM30.845 5.117c-0.805 0-1.455-0.217-1.951-0.65-0.48-0.449-0.72-1.006-0.72-1.672 0-0.681 0.24-1.246 0.72-1.695 0.495-0.449 1.146-0.674 1.951-0.674 0.79 0 1.425 0.225 1.905 0.674 0.495 0.449 0.743 1.014 0.743 1.695 0 0.666-0.248 1.223-0.743 1.672-0.48 0.434-1.115 0.65-1.905 0.65zM33.098 6.325v13.030h-4.552v-13.030h4.552zM41.939 15.058l2.439-8.733h4.854l-4.483 13.030h-5.667l-4.483-13.030h4.854l2.485 8.733z"></path>
<path fill="#e5e5e5" style="fill: var(--color2, #e5e5e5)" d="M54.476 12.828c0-1.347 0.279-2.524 0.836-3.53s1.332-1.781 2.323-2.323c1.006-0.542 2.152-0.813 3.437-0.813 1.657 0 3.050 0.457 4.181 1.37 1.13 0.898 1.858 2.16 2.183 3.786h-4.831c-0.279-0.852-0.821-1.277-1.626-1.277-0.573 0-1.030 0.24-1.37 0.72-0.325 0.465-0.488 1.154-0.488 2.067s0.163 1.61 0.488 2.090c0.341 0.48 0.797 0.72 1.37 0.72 0.821 0 1.363-0.426 1.626-1.277h4.831c-0.325 1.61-1.053 2.872-2.183 3.786s-2.524 1.37-4.181 1.37c-1.285 0-2.431-0.271-3.437-0.813-0.991-0.542-1.765-1.316-2.323-2.323s-0.836-2.191-0.836-3.554zM73.879 2.168v17.187h-4.552v-17.187h4.552zM75.729 12.828c0-1.347 0.24-2.524 0.72-3.53 0.495-1.006 1.161-1.781 1.997-2.323 0.852-0.542 1.796-0.813 2.834-0.813 0.898 0 1.672 0.178 2.323 0.534s1.154 0.836 1.51 1.44v-1.812h4.552v13.030h-4.552v-1.812c-0.356 0.604-0.867 1.084-1.533 1.44-0.65 0.356-1.417 0.534-2.299 0.534-1.037 0-1.982-0.271-2.834-0.813-0.836-0.542-1.502-1.316-1.997-2.323-0.48-1.022-0.72-2.206-0.72-3.554zM85.112 12.828c0-0.836-0.232-1.494-0.697-1.974-0.449-0.48-1.006-0.72-1.672-0.72-0.681 0-1.246 0.24-1.695 0.72-0.449 0.465-0.674 1.123-0.674 1.974 0 0.836 0.225 1.502 0.674 1.997 0.449 0.48 1.014 0.72 1.695 0.72 0.666 0 1.223-0.24 1.672-0.72 0.465-0.48 0.697-1.146 0.697-1.997zM97.809 19.517c-1.177 0-2.23-0.194-3.159-0.581-0.914-0.403-1.641-0.945-2.183-1.626-0.526-0.697-0.821-1.479-0.883-2.346h4.413c0.062 0.418 0.255 0.743 0.581 0.975s0.728 0.348 1.208 0.348c0.372 0 0.666-0.077 0.883-0.232s0.325-0.356 0.325-0.604c0-0.325-0.178-0.565-0.534-0.72s-0.945-0.325-1.765-0.511c-0.929-0.186-1.703-0.395-2.323-0.627s-1.161-0.612-1.626-1.138c-0.449-0.526-0.674-1.239-0.674-2.137 0-0.774 0.209-1.471 0.627-2.090 0.418-0.635 1.030-1.138 1.835-1.51 0.821-0.372 1.804-0.557 2.95-0.557 1.703 0 3.043 0.418 4.018 1.254s1.541 1.935 1.695 3.298h-4.111c-0.077-0.418-0.263-0.735-0.557-0.952-0.279-0.232-0.658-0.348-1.138-0.348-0.372 0-0.658 0.070-0.859 0.209-0.186 0.139-0.279 0.333-0.279 0.581 0 0.31 0.178 0.55 0.534 0.72 0.356 0.155 0.929 0.317 1.719 0.488 0.945 0.201 1.726 0.426 2.346 0.674 0.635 0.248 1.185 0.65 1.649 1.208 0.48 0.542 0.72 1.285 0.72 2.23 0 0.759-0.225 1.44-0.674 2.044-0.434 0.604-1.061 1.084-1.881 1.44-0.805 0.341-1.757 0.511-2.857 0.511zM111.010 19.517c-1.177 0-2.23-0.194-3.159-0.581-0.914-0.403-1.641-0.945-2.183-1.626-0.526-0.697-0.821-1.479-0.883-2.346h4.413c0.062 0.418 0.255 0.743 0.581 0.975s0.728 0.348 1.208 0.348c0.372 0 0.666-0.077 0.883-0.232s0.325-0.356 0.325-0.604c0-0.325-0.178-0.565-0.534-0.72s-0.945-0.325-1.765-0.511c-0.929-0.186-1.703-0.395-2.323-0.627s-1.161-0.612-1.626-1.138c-0.449-0.526-0.674-1.239-0.674-2.137 0-0.774 0.209-1.471 0.627-2.090 0.418-0.635 1.030-1.138 1.835-1.51 0.821-0.372 1.804-0.557 2.95-0.557 1.703 0 3.043 0.418 4.018 1.254s1.541 1.935 1.695 3.298h-4.111c-0.077-0.418-0.263-0.735-0.557-0.952-0.279-0.232-0.658-0.348-1.138-0.348-0.372 0-0.658 0.070-0.859 0.209-0.186 0.139-0.279 0.333-0.279 0.581 0 0.31 0.178 0.55 0.534 0.72 0.356 0.155 0.929 0.317 1.719 0.488 0.945 0.201 1.726 0.426 2.346 0.674 0.635 0.248 1.185 0.65 1.649 1.208 0.48 0.542 0.72 1.285 0.72 2.23 0 0.759-0.225 1.44-0.674 2.044-0.434 0.604-1.061 1.084-1.881 1.44-0.805 0.341-1.757 0.511-2.857 0.511zM131.689 6.186v4.111h-13.308v-4.111h13.308zM131.689 12.41v4.088h-13.308v-4.088h13.308zM135.13 2.981h4.599l-2.671 6.55h-3.043l1.115-6.55zM140.913 2.981h4.599l-2.671 6.55h-3.043l1.115-6.55z"></path>
</symbol>
<symbol id="icon-git" viewBox="0 0 20 20">
<path d="M9.992 1.49c-4.83-0.002-8.742 3.908-8.742 8.734 0 3.816 2.447 7.061 5.855 8.252 0.459 0.115 0.389-0.211 0.389-0.434v-1.514c-2.65 0.311-2.758-1.443-2.936-1.736-0.359-0.613-1.209-0.77-0.955-1.063 0.604-0.311 1.219 0.078 1.932 1.131 0.516 0.764 1.521 0.635 2.031 0.508 0.111-0.459 0.35-0.869 0.678-1.188-2.746-0.492-3.891-2.168-3.891-4.16 0-0.967 0.318-1.855 0.943-2.572-0.398-1.182 0.037-2.193 0.096-2.344 1.135-0.102 2.314 0.813 2.406 0.885 0.645-0.174 1.381-0.266 2.205-0.266 0.828 0 1.566 0.096 2.217 0.272 0.221-0.168 1.314-0.953 2.369-0.857 0.057 0.15 0.482 1.139 0.107 2.305 0.633 0.719 0.955 1.615 0.955 2.584 0 1.996-1.152 3.674-3.906 4.158 0.236 0.232 0.423 0.509 0.551 0.814s0.193 0.633 0.193 0.964v2.197c0.016 0.176 0 0.35 0.293 0.35 3.459-1.166 5.949-4.434 5.949-8.283 0-4.828-3.914-8.736-8.74-8.736z"></path>
</symbol>
<symbol id="icon-user-tie" viewBox="0 0 20 20">
<path d="M6.25 3.75c0-2.071 1.679-3.75 3.75-3.75s3.75 1.679 3.75 3.75c0 2.071-1.679 3.75-3.75 3.75s-3.75-1.679-3.75-3.75zM15.002 8.75h-0.692l-3.889 7.895 1.454-7.27-1.875-1.875-1.875 1.875 1.454 7.27-3.889-7.895h-0.692c-2.499 0-2.499 1.679-2.499 3.75v6.25h15v-6.25c0-2.071 0-3.75-2.498-3.75z"></path>
</symbol>
<symbol id="icon-home" viewBox="0 0 20 20">
<path d="M18.672 11h-1.672v6c0 0.445-0.194 1-1 1h-4v-6h-4v6h-4c-0.806 0-1-0.555-1-1v-6h-1.672c-0.598 0-0.47-0.324-0.060-0.748l8.024-8.032c0.195-0.202 0.451-0.302 0.708-0.312 0.257 0.010 0.513 0.109 0.708 0.312l8.023 8.031c0.411 0.425 0.539 0.749-0.059 0.749z"></path>
</symbol>
<symbol id="icon-location-pin" viewBox="0 0 20 20">
<path d="M10 2.009c-2.762 0-5 2.229-5 4.99 0 4.774 5 11 5 11s5-6.227 5-11c0-2.76-2.238-4.99-5-4.99zM10 9.76c-1.492 0-2.7-1.209-2.7-2.7s1.208-2.7 2.7-2.7c1.49 0 2.699 1.209 2.699 2.7s-1.209 2.7-2.699 2.7z"></path>
</symbol>
<symbol id="icon-magnifying-glass" viewBox="0 0 20 20">
<path d="M17.545 15.467l-3.779-3.779c0.57-0.935 0.898-2.035 0.898-3.21 0-3.417-2.961-6.377-6.378-6.377s-6.186 2.769-6.186 6.186c0 3.416 2.961 6.377 6.377 6.377 1.137 0 2.2-0.309 3.115-0.844l3.799 3.801c0.372 0.371 0.975 0.371 1.346 0l0.943-0.943c0.371-0.371 0.236-0.84-0.135-1.211zM4.004 8.287c0-2.366 1.917-4.283 4.282-4.283s4.474 2.107 4.474 4.474c0 2.365-1.918 4.283-4.283 4.283s-4.473-2.109-4.473-4.474z"></path>
</symbol>
<symbol id="icon-mail" viewBox="0 0 20 20">
<path d="M1.574 5.286c0.488 0.262 7.248 3.894 7.5 4.029s0.578 0.199 0.906 0.199c0.328 0 0.654-0.064 0.906-0.199s7.012-3.767 7.5-4.029c0.489-0.263 0.951-1.286 0.054-1.286h-16.919c-0.897 0-0.435 1.023 0.053 1.286zM18.613 7.489c-0.555 0.289-7.387 3.849-7.727 4.027s-0.578 0.199-0.906 0.199-0.566-0.021-0.906-0.199-7.133-3.739-7.688-4.028c-0.39-0.204-0.386 0.035-0.386 0.219s0 7.293 0 7.293c0 0.42 0.566 1 1 1h16c0.434 0 1-0.58 1-1 0 0 0-7.108 0-7.292s0.004-0.423-0.387-0.219z"></path>
</symbol>
<symbol id="icon-suitcase" viewBox="0 0 20 20">
<path d="M18 4h-1v15h1c1.1 0 2-0.9 2-2v-11c0-1.1-0.9-2-2-2zM0 6v11c0 1.1 0.899 2 2 2h1v-15h-1c-1.101 0-2 0.9-2 2zM13.5 1.906c-0.681-0.316-1.889-0.906-3.519-0.906-1.633 0-2.8 0.59-3.481 0.906v2.094h-2.5v15h12v-15h-2.5v-2.094zM12 4h-4v-1.336c0.534-0.23 1.078-0.465 1.981-0.465s1.486 0.234 2.019 0.465v1.336z"></path>
</symbol>
<symbol id="icon-dribbble" viewBox="0 0 20 20">
<path d="M9.565 7.421c-1.358-2.414-2.811-4.383-2.917-4.528-2.191 1.036-3.826 3.055-4.337 5.487 0.206 0.004 3.482 0.043 7.254-0.959zM10.543 10.061c0.102-0.033 0.206-0.064 0.309-0.094-0.197-0.447-0.412-0.895-0.637-1.336-4.046 1.212-7.928 1.124-8.065 1.12-0.003 0.084-0.007 0.166-0.007 0.25 0 2.019 0.763 3.861 2.016 5.252l-0.005-0.006c0 0 2.15-3.814 6.389-5.186zM5.171 16.194v-0.004c-0.058-0.045-0.12-0.086-0.178-0.135 0.106 0.085 0.178 0.139 0.178 0.139zM8.118 2.372c-0.007 0.002-0.015 0.004-0.015 0.004 0.006-0.002 0.014-0.002 0.014-0.002l0.001-0.002zM15.189 4.104c-1.384-1.218-3.199-1.961-5.189-1.961-0.639 0-1.258 0.078-1.852 0.221 0.12 0.16 1.595 2.119 2.938 4.584 2.962-1.109 4.081-2.812 4.103-2.844zM10 19.2c-5.080 0-9.199-4.119-9.199-9.199-0.001-5.082 4.118-9.201 9.199-9.201s9.2 4.119 9.2 9.201c0 5.080-4.118 9.199-9.2 9.199zM11.336 11.286c-4.611 1.607-6.134 4.838-6.165 4.904 1.334 1.041 3.006 1.666 4.828 1.666 1.088 0 2.125-0.221 3.067-0.621-0.116-0.689-0.573-3.096-1.679-5.967-0.016 0.006-0.033 0.012-0.051 0.018zM11.69 8.12c0.184 0.373 0.358 0.754 0.523 1.139 0.059 0.135 0.114 0.272 0.17 0.406 2.713-0.342 5.385 0.238 5.473 0.256-0.019-1.863-0.686-3.572-1.787-4.912-0.018 0.023-1.279 1.843-4.379 3.111zM12.861 10.905c1.031 2.836 1.449 5.142 1.529 5.611 1.764-1.191 3.018-3.080 3.367-5.27-0.156-0.050-2.356-0.747-4.896-0.341z"></path>
</symbol>
<symbol id="icon-linkedin" viewBox="0 0 20 20">
<path d="M5 3c0 1.062-0.71 1.976-2.001 1.976-1.215 0-1.999-0.862-1.999-1.924 0-1.090 0.76-2.052 2-2.052s1.976 0.91 2 2zM1 19v-13h4v13h-4z"></path>
<path d="M7 10.444c0-1.545-0.051-2.836-0.102-3.951h3.594l0.178 1.723h0.076c0.506-0.811 1.746-2 3.822-2 2.532 0 4.432 1.695 4.432 5.342v7.442h-4v-6.861c0-1.594-0.607-2.81-2-2.81-1.062 0-1.594 0.86-1.873 1.569-0.102 0.254-0.127 0.608-0.127 0.963v7.139h-4v-8.556z"></path>
</symbol>
<symbol id="icon-twitter" viewBox="0 0 20 20">
<path d="M17.316 6.246c0.008 0.162 0.011 0.326 0.011 0.488 0 4.99-3.797 10.742-10.74 10.742-2.133 0-4.116-0.625-5.787-1.697 0.296 0.035 0.596 0.053 0.9 0.053 1.77 0 3.397-0.604 4.688-1.615-1.651-0.031-3.046-1.121-3.526-2.621 0.23 0.043 0.467 0.066 0.71 0.066 0.345 0 0.679-0.045 0.995-0.131-1.727-0.348-3.028-1.873-3.028-3.703 0-0.016 0-0.031 0-0.047 0.509 0.283 1.092 0.453 1.71 0.473-1.013-0.678-1.68-1.832-1.68-3.143 0-0.691 0.186-1.34 0.512-1.898 1.861 2.285 4.644 3.787 7.781 3.945-0.064-0.277-0.097-0.564-0.097-0.861 0-2.084 1.689-3.773 3.774-3.773 1.086 0 2.067 0.457 2.756 1.191 0.859-0.17 1.667-0.484 2.397-0.916-0.282 0.881-0.881 1.621-1.66 2.088 0.764-0.092 1.49-0.293 2.168-0.594-0.506 0.758-1.146 1.422-1.884 1.953z"></path>
</symbol>
</defs>
</svg>
